<?xml version="1.0" encoding="utf-8"?>
<!-- Generator: Adobe Illustrator 19.1.0, SVG Export Plug-In . SVG Version: 6.00 Build 0)  -->
<svg version="1.1" id="Layer_1" xmlns="http://www.w3.org/2000/svg" xmlns:xlink="http://www.w3.org/1999/xlink" x="0px" y="0px"
	 viewBox="0 0 30 30" style="enable-background:new 0 0 145 30;" xml:space="preserve">
<style type="text/css">
	.st0{fill:#153d64;}
</style>
<g>
	<path class="st0" d="M16.1,21.9C16.1,21.9,16.1,21.9,16.1,21.9c0.2,0,0.5-0.1,0.6-0.2l3.1-3.1c0,0,0,0,0,0l3.1-3.1c0,0,0,0,0,0
		l5.4-5.4c2.3-2.3,2.3-6.1,0-8.4c-2.3-2.3-6.1-2.3-8.4,0L8.3,13.3c-0.2,0.2-0.3,0.4-0.2,0.6l0.1,6.7L5,23.8
		c-2.1-2.4-3.3-5.5-3.3-8.7c0-3.5,1.4-6.8,3.9-9.3C8,3.3,11.3,2,14.9,2c0.5,0,0.8-0.4,0.8-0.8s-0.4-0.8-0.8-0.8
		c-4,0-7.7,1.5-10.5,4.4C1.5,7.4,0,11.2,0,15.1c0,4,1.5,7.7,4.4,10.5c2.8,2.8,6.5,4.4,10.5,4.4s7.7-1.5,10.5-4.4
		c2.8-2.8,4.4-6.5,4.4-10.5c0-0.5-0.4-0.8-0.8-0.8c-0.5,0-0.8,0.4-0.8,0.8c0,3.5-1.4,6.8-3.9,9.3s-5.8,3.9-9.3,3.9
		c-3.2,0-6.3-1.2-8.7-3.3l3.2-3.2L16.1,21.9z M15.8,20.2L11,20.2l1.5-1.5l4.7,0.1L15.8,20.2z M15.6,15.6l4.7,0.1l-1.5,1.5L14.1,17
		L15.6,15.6z M9.8,14.2L21.1,2.9c1.7-1.7,4.3-1.7,6,0c0.8,0.8,1.2,1.9,1.2,3s-0.4,2.2-1.2,3L22,14l-4.7-0.1l4-4
		c0.3-0.3,0.3-0.9,0-1.2c-0.3-0.3-0.9-0.3-1.2,0l-8.5,8.5l0,0L9.8,19L9.8,14.2z"/>

</g>
</svg>
